<?xml version="1.0" encoding="utf-8"?>
<!-- Generator: Adobe Illustrator 16.0.0, SVG Export Plug-In . SVG Version: 6.00 Build 0)  -->
<!DOCTYPE svg PUBLIC "-//W3C//DTD SVG 1.1//EN" "http://www.w3.org/Graphics/SVG/1.1/DTD/svg11.dtd">
<svg version="1.1" id="Layer_1" xmlns="http://www.w3.org/2000/svg" xmlns:xlink="http://www.w3.org/1999/xlink" x="0px" y="0px"
	 width="172.724px" height="146.517px" viewBox="0 0 172.724 146.517" enable-background="new 0 0 172.724 146.517"
	 xml:space="preserve">
<rect x="0.5" y="0.5" fill="#2C2C2C" stroke="#000000" width="171.724" height="145.517"/>
<g>
	<path fill="#565656" d="M46.458,34.919c-5.951,0-10.874-4.924-10.874-10.875c0-5.948,4.923-10.876,10.874-10.876
		c5.95,0,10.875,4.928,10.875,10.876C57.333,29.996,52.408,34.919,46.458,34.919z"/>
	<rect x="36.465" y="37.976" fill="#565656" width="20.506" height="69.793"/>
</g>
<g>
	<path fill="#9D9C9C" d="M82.493,75.408c-3.538-3.355-6.954-4.331-9.76-4.331c-3.843,0-6.588,2.013-6.588,4.941
		c0,7.991,17.995,7.869,17.995,21.105c0,6.527-4.941,11.285-11.651,11.285c-4.514,0-8.174-1.22-11.651-3.843v-7.564
		c3.05,3.904,6.893,6.039,10.98,6.039c4.636,0,6.771-2.928,6.771-5.246c0-8.601-17.995-9.576-17.995-20.983
		c0-6.771,5.002-11.102,12.627-11.102c3.172,0,6.344,0.976,9.272,2.928V75.408z"/>
	<path fill="#9D9C9C" d="M110.614,71.626H92.984v12.566h17.019v5.368H92.984v12.932h18.178v5.368H87.006V66.258h23.607V71.626z"/>
	<path fill="#9D9C9C" d="M124.46,66.258c8.418,0,13.664,4.453,13.664,11.651c0,4.819-2.501,8.418-6.954,10.188
		c3.782,2.501,6.1,6.344,9.271,11.528c1.77,2.867,2.807,4.271,5.674,8.235h-7.138l-5.489-8.54c-5.49-8.54-7.991-9.516-11.041-9.516
		h-2.501v18.056h-5.979V66.258H124.46z M119.947,84.437h3.843c6.404,0,8.234-3.294,8.174-6.771
		c-0.062-3.903-2.379-6.283-8.174-6.283h-3.843V84.437z"/>
</g>
<g>
	<path fill="#FFFFFF" d="M49.303,62.731c-2.967,0-5.422-2.455-5.422-5.422s2.455-5.423,5.422-5.423s5.422,2.456,5.422,5.423
		S52.27,62.731,49.303,62.731z"/>
	<rect x="44.688" y="66.242" fill="#FFFFFF" width="9.277" height="41.757"/>
</g>
<g>
	<path fill="#9D9C9C" d="M32.406,56.516c-3.822,0-6.984-3.163-6.984-6.985c0-3.821,3.162-6.986,6.984-6.986s6.985,3.165,6.985,6.986
		C39.392,53.353,36.229,56.516,32.406,56.516z"/>
	<rect x="26.46" y="61.039" fill="#9D9C9C" width="11.952" height="53.796"/>
</g>
<g>
	<path fill="#FFFFFF" d="M46.502,122.165h-0.98v-6.82h0.98V122.165z"/>
	<path fill="#FFFFFF" d="M54.322,122.165h-0.84l-4.56-5.25v5.25h-0.92v-6.82h0.78l4.62,5.28v-5.28h0.92V122.165z"/>
	<path fill="#FFFFFF" d="M59.062,116.845c-0.58-0.55-1.14-0.71-1.6-0.71c-0.63,0-1.08,0.33-1.08,0.811c0,1.31,2.95,1.29,2.95,3.46
		c0,1.069-0.81,1.85-1.91,1.85c-0.74,0-1.34-0.2-1.91-0.63v-1.24c0.5,0.641,1.13,0.99,1.8,0.99c0.76,0,1.11-0.479,1.11-0.86
		c0-1.409-2.95-1.569-2.95-3.439c0-1.11,0.82-1.82,2.07-1.82c0.52,0,1.04,0.16,1.52,0.48V116.845z"/>
	<path fill="#FFFFFF" d="M65.522,116.225h-2.36v5.94h-0.98v-5.94h-2.36v-0.88h5.7V116.225z"/>
	<path fill="#FFFFFF" d="M67.432,122.165h-0.98v-6.82h0.98V122.165z"/>
	<path fill="#FFFFFF" d="M74.062,116.225h-2.36v5.94h-0.98v-5.94h-2.36v-0.88h5.7V116.225z"/>
	<path fill="#FFFFFF" d="M80.712,119.485c0,1.67-1,2.77-3.03,2.77c-1.44,0-2.84-0.81-2.84-2.67v-4.24h0.98v4.03
		c0,0.771,0.1,1.09,0.41,1.4c0.39,0.39,0.88,0.58,1.47,0.58c0.75,0,1.29-0.24,1.6-0.551c0.35-0.35,0.43-0.85,0.43-1.489v-3.971h0.98
		V119.485z"/>
	<path fill="#FFFFFF" d="M87.182,116.225h-2.36v5.94h-0.98v-5.94h-2.36v-0.88h5.7V116.225z"/>
	<path fill="#FFFFFF" d="M91.972,116.225h-2.89v2.061h2.79v0.88h-2.79v2.12h2.98v0.88h-3.96v-6.82h3.87V116.225z"/>
	<path fill="#FFFFFF" d="M99.532,116.225h-2.66v1.891h2.66v0.88h-2.66v3.17h-0.98v-6.82h3.64V116.225z"/>
	<path fill="#FFFFFF" d="M103.932,115.255c2.25,0,3.669,1.601,3.669,3.5c0,1.84-1.38,3.5-3.689,3.5c-2.23,0-3.64-1.649-3.64-3.5
		C100.271,116.865,101.722,115.255,103.932,115.255z M103.932,121.355c1.53,0,2.66-1.11,2.66-2.601c0-1.5-1.13-2.6-2.66-2.6
		c-1.52,0-2.65,1.1-2.65,2.6C101.282,120.245,102.412,121.355,103.932,121.355z"/>
	<path fill="#FFFFFF" d="M110.542,115.345c1.38,0,2.24,0.73,2.24,1.91c0,0.79-0.41,1.38-1.141,1.67c0.62,0.41,1,1.04,1.521,1.891
		c0.29,0.47,0.46,0.699,0.93,1.35h-1.17l-0.899-1.4c-0.9-1.399-1.311-1.56-1.811-1.56h-0.41v2.96h-0.979v-6.82H110.542z
		 M109.801,118.325h0.63c1.051,0,1.351-0.54,1.341-1.11c-0.011-0.64-0.391-1.03-1.341-1.03h-0.63V118.325z"/>
	<path fill="#FFFFFF" d="M120.862,116.845c-0.58-0.55-1.141-0.71-1.601-0.71c-0.63,0-1.08,0.33-1.08,0.811
		c0,1.31,2.95,1.29,2.95,3.46c0,1.069-0.81,1.85-1.91,1.85c-0.74,0-1.34-0.2-1.91-0.63v-1.24c0.5,0.641,1.131,0.99,1.801,0.99
		c0.76,0,1.109-0.479,1.109-0.86c0-1.409-2.95-1.569-2.95-3.439c0-1.11,0.82-1.82,2.07-1.82c0.521,0,1.04,0.16,1.521,0.48V116.845z"
		/>
	<path fill="#FFFFFF" d="M125.561,115.255c2.25,0,3.67,1.601,3.67,3.5c0,1.84-1.38,3.5-3.689,3.5c-2.23,0-3.641-1.649-3.641-3.5
		C121.901,116.865,123.351,115.255,125.561,115.255z M125.561,121.355c1.53,0,2.66-1.11,2.66-2.601c0-1.5-1.13-2.6-2.66-2.6
		c-1.52,0-2.649,1.1-2.649,2.6C122.912,120.245,124.042,121.355,125.561,121.355z"/>
	<path fill="#FFFFFF" d="M136.242,116.865c-0.841-0.49-1.561-0.71-2.351-0.71c-1.56,0-2.72,1.109-2.72,2.609
		c0,1.53,1.12,2.591,2.76,2.591c0.771,0,1.61-0.271,2.38-0.771v1.07c-0.67,0.35-1.399,0.6-2.47,0.6c-2.56,0-3.68-1.97-3.68-3.399
		c0-2.08,1.569-3.601,3.739-3.601c0.7,0,1.41,0.17,2.341,0.561V116.865z"/>
	<path fill="#FFFFFF" d="M138.501,122.165h-0.98v-6.82h0.98V122.165z"/>
	<path fill="#FFFFFF" d="M145.931,122.165h-1l-0.91-2.01h-2.899l-0.86,2.01h-1l2.93-6.86h0.69L145.931,122.165z M141.501,119.275
		h2.12l-1.101-2.471L141.501,119.275z"/>
	<path fill="#FFFFFF" d="M147.651,121.285h3.08v0.88h-4.06v-6.82h0.979V121.285z"/>
	<path fill="#FFFFFF" d="M50.692,128.775c-0.19,0.55-0.6,1.22-1.11,1.79l1.38,1.6h-1.26l-0.78-0.93c-0.85,0.77-1.54,1.02-2.16,1.02
		c-0.93,0-1.72-0.71-1.72-1.62c0-0.819,0.66-1.46,1.61-2.01c-0.4-0.42-0.77-1-0.77-1.58c0-0.95,0.69-1.57,1.75-1.57
		c0.96,0,1.64,0.65,1.64,1.48c0,0.66-0.37,1.2-1.25,1.82l0.96,1.1c0.28-0.28,0.58-0.76,0.73-1.1H50.692z M47.212,129.275
		c-0.76,0.479-1.19,0.83-1.19,1.359c0.03,0.391,0.4,0.721,0.84,0.721c0.5,0,0.99-0.33,1.46-0.801L47.212,129.275z M47.472,128.115
		c0.73-0.46,0.89-0.76,0.89-1.11c0-0.399-0.33-0.7-0.78-0.7c-0.42,0-0.74,0.28-0.74,0.65
		C46.842,127.375,47.182,127.835,47.472,128.115z"/>
	<path fill="#FFFFFF" d="M58.412,126.225h-2.89v2.061h2.79v0.88h-2.79v2.12h2.98v0.88h-3.96v-6.82h3.87V126.225z"/>
	<path fill="#FFFFFF" d="M65.352,126.865c-0.84-0.49-1.56-0.71-2.35-0.71c-1.56,0-2.72,1.109-2.72,2.609
		c0,1.53,1.12,2.591,2.76,2.591c0.77,0,1.61-0.271,2.38-0.771v1.07c-0.67,0.35-1.4,0.6-2.47,0.6c-2.56,0-3.68-1.97-3.68-3.399
		c0-2.08,1.57-3.601,3.74-3.601c0.7,0,1.41,0.17,2.34,0.561V126.865z"/>
	<path fill="#FFFFFF" d="M69.982,125.255c2.25,0,3.67,1.601,3.67,3.5c0,1.84-1.38,3.5-3.69,3.5c-2.23,0-3.64-1.649-3.64-3.5
		C66.322,126.865,67.772,125.255,69.982,125.255z M69.982,131.355c1.53,0,2.66-1.11,2.66-2.601c0-1.5-1.13-2.6-2.66-2.6
		c-1.52,0-2.65,1.1-2.65,2.6C67.332,130.245,68.462,131.355,69.982,131.355z"/>
	<path fill="#FFFFFF" d="M81.162,132.165h-0.84l-4.56-5.25v5.25h-0.92v-6.82h0.78l4.62,5.28v-5.28h0.92V132.165z"/>
	<path fill="#FFFFFF" d="M86.022,125.255c2.25,0,3.67,1.601,3.67,3.5c0,1.84-1.38,3.5-3.69,3.5c-2.23,0-3.64-1.649-3.64-3.5
		C82.362,126.865,83.812,125.255,86.022,125.255z M86.022,131.355c1.53,0,2.66-1.11,2.66-2.601c0-1.5-1.13-2.6-2.66-2.6
		c-1.52,0-2.65,1.1-2.65,2.6C83.372,130.245,84.502,131.355,86.022,131.355z"/>
	<path fill="#FFFFFF" d="M97.232,132.165h-0.98v-5.31h-0.02l-2.1,2.64h-0.16l-2.1-2.64h-0.02v5.31h-0.98v-6.82h0.92l2.26,2.801
		l2.27-2.801h0.91V132.165z"/>
	<path fill="#FFFFFF" d="M99.692,132.165h-0.98v-6.82h0.98V132.165z"/>
	<path fill="#FFFFFF" d="M107.012,126.865c-0.84-0.49-1.561-0.71-2.35-0.71c-1.56,0-2.72,1.109-2.72,2.609
		c0,1.53,1.12,2.591,2.76,2.591c0.77,0,1.61-0.271,2.38-0.771v1.07c-0.67,0.35-1.399,0.6-2.47,0.6c-2.56,0-3.68-1.97-3.68-3.399
		c0-2.08,1.57-3.601,3.74-3.601c0.7,0,1.41,0.17,2.34,0.561V126.865z"/>
	<path fill="#FFFFFF" d="M112.802,125.345c1.38,0,2.239,0.73,2.239,1.91c0,0.79-0.41,1.38-1.14,1.67c0.62,0.41,1,1.04,1.52,1.891
		c0.29,0.47,0.46,0.699,0.931,1.35h-1.17l-0.9-1.4c-0.9-1.399-1.31-1.56-1.81-1.56h-0.41v2.96h-0.98v-6.82H112.802z
		 M112.062,128.325h0.63c1.05,0,1.35-0.54,1.34-1.11c-0.01-0.64-0.39-1.03-1.34-1.03h-0.63V128.325z"/>
	<path fill="#FFFFFF" d="M120.972,126.225h-2.891v2.061h2.79v0.88h-2.79v2.12h2.98v0.88h-3.96v-6.82h3.87V126.225z"/>
	<path fill="#FFFFFF" d="M125.341,126.845c-0.58-0.55-1.14-0.71-1.6-0.71c-0.63,0-1.08,0.33-1.08,0.811c0,1.31,2.95,1.29,2.95,3.46
		c0,1.069-0.811,1.85-1.91,1.85c-0.74,0-1.34-0.2-1.91-0.63v-1.24c0.5,0.641,1.13,0.99,1.8,0.99c0.761,0,1.11-0.479,1.11-0.86
		c0-1.409-2.95-1.569-2.95-3.439c0-1.11,0.82-1.82,2.07-1.82c0.52,0,1.04,0.16,1.52,0.48V126.845z"/>
	<path fill="#FFFFFF" d="M130.551,126.225h-2.89v2.061h2.79v0.88h-2.79v2.12h2.98v0.88h-3.961v-6.82h3.87V126.225z"/>
	<path fill="#FFFFFF" d="M137.602,132.165h-1l-0.91-2.01h-2.9l-0.86,2.01h-0.999l2.93-6.86h0.689L137.602,132.165z M133.171,129.275
		h2.12l-1.1-2.471L133.171,129.275z"/>
	<path fill="#FFFFFF" d="M140.091,125.345c1.38,0,2.24,0.73,2.24,1.91c0,0.79-0.41,1.38-1.14,1.67c0.62,0.41,1,1.04,1.52,1.891
		c0.29,0.47,0.46,0.699,0.93,1.35h-1.17l-0.899-1.4c-0.9-1.399-1.311-1.56-1.811-1.56h-0.41v2.96h-0.979v-6.82H140.091z
		 M139.351,128.325h0.631c1.05,0,1.35-0.54,1.34-1.11c-0.01-0.64-0.391-1.03-1.34-1.03h-0.631V128.325z"/>
	<path fill="#FFFFFF" d="M150.202,126.865c-0.84-0.49-1.561-0.71-2.351-0.71c-1.56,0-2.72,1.109-2.72,2.609
		c0,1.53,1.12,2.591,2.76,2.591c0.771,0,1.61-0.271,2.38-0.771v1.07c-0.67,0.35-1.399,0.6-2.47,0.6c-2.56,0-3.68-1.97-3.68-3.399
		c0-2.08,1.57-3.601,3.74-3.601c0.699,0,1.409,0.17,2.34,0.561V126.865z"/>
	<path fill="#FFFFFF" d="M157.251,132.165h-0.98v-2.97h-3.819v2.97h-0.98v-6.82h0.98v2.971h3.819v-2.971h0.98V132.165z"/>
</g>
</svg>
